HIERARCHY
ROOT Hips
{
  OFFSET -125.086 92.215 135.881
  CHANNELS 6 Xposition Yposition Zposition Zrotation Xrotation Yrotation
  JOINT LeftUpLeg
  {
    OFFSET 8.64259 1.95398 -2.38835
    CHANNELS 3 Zrotation Xrotation Yrotation
    JOINT LeftLeg
    {
      OFFSET 43.7702 0 0
      CHANNELS 3 Zrotation Xrotation Yrotation
      JOINT LeftFoot
      {
        OFFSET 40.6238 0 0
        CHANNELS 3 Zrotation Xrotation Yrotation
        JOINT LeftToeBase
        {
          OFFSET 12.7242 0 0
          CHANNELS 3 Zrotation Xrotation Yrotation
          End Site
          {
            OFFSET 0 0 0
          }
        }
      }
    }
  }
  JOINT RightUpLeg
  {
    OFFSET -8.2249 1.95398 -2.59336
    CHANNELS 3 Zrotation Xrotation Yrotation
    JOINT RightLeg
    {
      OFFSET 43.5653 0 0
      CHANNELS 3 Zrotation Xrotation Yrotation
      JOINT RightFoot
      {
        OFFSET 40.6238 0 0
        CHANNELS 3 Zrotation Xrotation Yrotation
        JOINT RightToeBase
        {
          OFFSET 12.7242 0 0
          CHANNELS 3 Zrotation Xrotation Yrotation
          End Site
          {
            OFFSET 0 0 0
          }
        }
      }
    }
  }
  JOINT Spine
  {
    OFFSET 0.165834 0.87714 6.61349
    CHANNELS 3 Zrotation Xrotation Yrotation
    JOINT Spine1
    {
      OFFSET 7.38963 1.71661e-005 0
      CHANNELS 3 Zrotation Xrotation Yrotation
      JOINT Spine2
      {
        OFFSET 11.9445 1.14441e-005 0
        CHANNELS 3 Zrotation Xrotation Yrotation
        JOINT Spine3
        {
          OFFSET 14.7254 4.19617e-005 0
          CHANNELS 3 Zrotation Xrotation Yrotation
          JOINT Spine4
          {
            OFFSET 10.9679 0 0
            CHANNELS 3 Zrotation Xrotation Yrotation
            JOINT RightShoulder
            {
              OFFSET 2.46616 -1.6653 3.69651
              CHANNELS 3 Zrotation Xrotation Yrotation
              JOINT RightArm
              {
                OFFSET 13.0012 0 0
                CHANNELS 3 Zrotation Xrotation Yrotation
                JOINT RightForeArm
                {
                  OFFSET 28.7848 1.52588e-005 0
                  CHANNELS 3 Zrotation Xrotation Yrotation
                  JOINT RightHand
                  {
                    OFFSET 26.5688 1.52588e-005 0
                    CHANNELS 3 Zrotation Xrotation Yrotation
                    End Site
                    {
                      OFFSET 0 0 0
                    }
                  }
                }
              }
            }
            JOINT LeftShoulder
            {
              OFFSET 2.38034 -1.29275 -3.7523
              CHANNELS 3 Zrotation Xrotation Yrotation
              JOINT LeftArm
              {
                OFFSET 16.3182 6.10352e-005 0
                CHANNELS 3 Zrotation Xrotation Yrotation
                JOINT LeftForeArm
                {
                  OFFSET 27.0901 0 0
                  CHANNELS 3 Zrotation Xrotation Yrotation
                  JOINT LeftHand
                  {
                    OFFSET 24.5451 1.52588e-005 0
                    CHANNELS 3 Zrotation Xrotation Yrotation
                    End Site
                    {
                      OFFSET 0 0 0
                    }
                  }
                }
              }
            }
            JOINT Neck
            {
              OFFSET 5.0226 -0.0266342 0
              CHANNELS 3 Zrotation Xrotation Yrotation
              JOINT Head
              {
                OFFSET 6.69363 2.86102e-005 0
                CHANNELS 3 Zrotation Xrotation Yrotation
                End Site
                {
                  OFFSET 0 0 0
                }
              }
            }
          }
        }
      }
    }
  }
}
MOTION
Frames:	10
Frame Time:	0.0416667
172.01 97.5285 168.136 -94.481 24.5664 -86.3279 177.903 2.41442 86.5669 -14.8898 26.0484 6.58343 54.557 2.47723 8.3057 43.6856 -1.20855 4.05158 172.532 3.73397 87.9488 -20.929 8.67711 2.61534 60.4199 3.1371 13.2913 34.5259 -0.833344 -1.34119 -1.93632 6.79971 -90.1794 13.2849 -3.9288 0.135149 1.61982 -3.91905 0.308194 -20.9607 -3.78752 -1.05361 -0.948077 -3.78752 -1.05361 109.316 -51.8916 -71.2848 31.6622 -23.7233 5.58414 5.34254 5.42645 -82.2077 -6.53375 -0.196768 -1.81443 -71.2868 -49.2221 106.922 -22.8045 29.0547 -12.3581 -25.2883 -7.02401 -62.8403 10.1896 -0.93162 -12.0006 -3.56921 0.766972 -3.44624 -13.3116 0.593103 6.49612 
172.055 97.5293 168.205 -94.0605 24.9651 -86.3687 177.963 3.08679 86.5199 -15.7647 25.7733 6.71551 55.7386 3.32029 9.94258 41.7268 -1.10971 2.21185 172.58 4.26559 88.0987 -20.9344 7.74541 2.71599 60.3325 2.96733 12.4909 34.5332 -0.819292 -1.66381 -1.9061 6.79319 -90.1734 13.2978 -3.86603 0.139948 1.6326 -3.85612 0.310221 -20.9465 -3.72909 -1.03008 -0.933874 -3.72909 -1.03009 109.655 -52.0614 -70.7954 31.3571 -24.1156 4.86715 5.71117 5.43605 -81.9481 -7.03557 -0.214177 -1.76223 -72.3829 -50.6462 105.108 -18.2587 43.7098 -10.9516 -61.9494 -18.5147 -81.3666 28.9619 -2.71427 -13.8468 -2.32433 0.774824 -4.0386 -14.9525 0.570792 6.93108 
172.118 97.5561 168.197 -94.5768 25.2513 -86.2807 178.04 2.52518 86.4083 -15.505 25.6423 6.59907 55.4314 3.14828 9.9567 42.0774 -1.12995 2.43645 172.588 3.76386 87.8939 -20.8496 8.61093 2.54498 60.6611 2.97178 14.0101 33.553 -0.65858 -1.55243 -1.83663 6.83908 -90.1271 13.206 -3.7062 0.207775 1.54028 -3.69346 0.370909 -21.0356 -3.59706 -0.91718 -1.02299 -3.59707 -0.917187 110.269 -52.714 -69.9627 30.645 -24.1391 4.7827 5.94383 5.48747 -81.9638 -7.23494 -0.21501 -1.81465 -72.7715 -50.6635 104.522 -18.2423 44.6586 -10.8033 -54.24 -19.2952 -78.7039 22.7416 -2.58541 -14.9256 -2.01516 0.503294 -4.26198 -15.5786 0.346007 6.49168 
172.097 97.6118 168.137 -95.6148 25.4462 -86.4269 178.001 0.831284 85.8943 -13.845 25.6317 6.30933 54.9465 3.01209 10.0755 41.9308 -1.12161 2.02476 172.129 3.08569 87.0608 -21.2981 8.42807 2.52131 61.1764 2.99391 14.7123 32.6653 -0.498972 -1.68576 -1.81174 6.93651 -90.0155 13.0144 -3.60411 0.409868 1.34831 -3.58256 0.56829 -21.2262 -3.56044 -0.693679 -1.21357 -3.56044 -0.693684 110.226 -52.0434 -69.9278 31.6872 -24.0332 4.78798 6.3269 5.34378 -81.7118 -7.61135 -0.20753 -2.11508 -73.1185 -50.3403 104.025 -21.9244 28.8335 -10.7962 -24.2774 -8.14906 -63.7754 14.6082 -2.12929 -18.3382 -1.61824 0.39505 -4.30209 -16.2011 0.306237 5.72762 
172.074 97.6588 168.106 -96.847 26.1297 -86.3655 177.987 -0.732115 85.315 -12.8877 24.9955 6.28674 54.513 2.68203 9.92737 42.0429 -1.12904 2.06464 171.753 2.32164 86.3574 -21.5229 6.88517 2.45543 61.3417 2.69341 13.8621 33.0525 -0.577776 -1.48315 -1.72943 7.03461 -89.9387 12.8182 -3.40491 0.529892 1.15157 -3.37833 0.679396 -21.4191 -3.40659 -0.519152 -1.40641 -3.40658 -0.519151 110.183 -51.5054 -69.912 32.2662 -23.856 4.74515 6.38096 5.24698 -81.2778 -7.52843 -0.203604 -2.17327 -73.2096 -50.2786 103.894 -22.7866 26.9875 -10.5598 -22.0715 -6.99813 -63.2849 14.7908 -2.39479 -19.5523 -1.02736 0.416064 -3.42677 -16.8579 0.389971 4.10169 
172.122 97.7026 168.036 -98.309 26.7549 -86.5425 178.036 -2.76749 84.5852 -11.2292 24.8611 5.81123 53.6858 2.27976 9.96532 42.167 -1.13529 2.75854 171.271 1.74373 85.2346 -22.4129 5.79456 2.24555 61.596 2.71651 14.2343 33.4544 -0.655447 -1.30832 -1.66936 7.17235 -89.8291 12.5441 -3.23492 0.71665 0.876942 -3.20027 0.858465 -21.6906 -3.30063 -0.289784 -1.6779 -3.30062 -0.289788 110.036 -51.5638 -70.1447 32.1194 -23.8659 4.95634 6.91525 5.35372 -81.6418 -8.04892 -0.211141 -2.26212 -73.1768 -50.447 103.93 -22.7922 26.7887 -10.5699 -20.5594 -6.66488 -63.2356 17.1022 -3.10373 -21.8134 0.0810417 0.492126 -2.40968 -18.1351 0.490249 2.67197 
172.104 97.7463 167.978 -99.8295 27.5949 -86.5777 178.044 -4.43739 83.8189 -10.4088 24.0903 5.55722 53.7978 2.32957 10.0206 41.6398 -1.10275 2.2171 170.94 1.02601 84.2596 -23.1581 4.76744 1.8918 62.2805 2.479 14.6101 33.0113 -0.539659 -1.99765 -1.56592 7.31903 -89.7183 12.251 -2.97872 0.896135 0.583079 -2.9364 1.02646 -21.9795 -3.11021 -0.0413679 -1.96684 -3.11022 -0.0413735 110.331 -51.6249 -69.7049 32.0578 -23.6971 4.69905 6.54885 5.28265 -81.5282 -7.45632 -0.198582 -2.22727 -73.3322 -49.9811 103.731 -23.4564 27.0514 -10.4991 -20.5599 -7.13961 -63.5297 18.3792 -3.44586 -22.5471 0.740342 0.6068 -1.85984 -18.4497 0.691553 1.41224 
172.079 97.7724 167.933 -101.369 28.4154 -86.6858 177.8 -5.71715 82.792 -10.3578 23.198 5.39626 53.9122 2.29968 10.0757 41.6556 -1.1037 2.26389 170.309 0.425607 82.9875 -23.8522 2.90273 1.76027 62.6486 2.14513 13.908 33.3197 -0.607563 -1.7427 -1.46594 7.44489 -89.6016 11.9997 -2.72674 1.09127 0.331031 -2.67604 1.21027 -22.2268 -2.92855 0.220676 -2.21411 -2.92855 0.220672 110.464 -51.7496 -69.5227 32.048 -23.4967 4.86564 6.42212 5.24331 -81.762 -7.49085 -0.231742 -1.69055 -73.8275 -49.6004 103.006 -24.7782 26.5942 -9.81215 -19.9792 -7.11872 -63.5934 18.5776 -3.5328 -22.8343 1.69329 0.52065 -1.33841 -19.6331 0.667237 0.416027 
172.12 97.8352 167.854 -102.697 29.2015 -86.7984 177.787 -6.84143 82.0192 -10.1932 22.6004 5.0083 53.8309 2.18448 10.35 42.0201 -1.12742 2.23093 170.089 0.0992349 82.0306 -24.7931 1.88193 1.33235 62.8521 2.14236 14.2728 33.5025 -0.602194 -2.40013 -1.4046 7.59311 -89.5024 11.7033 -2.56017 1.26026 0.0341694 -2.50223 1.37175 -22.5203 -2.8205 0.432039 -2.50767 -2.82048 0.432042 110.446 -51.6309 -69.5313 31.9752 -23.6371 4.52308 6.5222 5.28554 -81.7012 -6.95802 -0.187069 -2.2095 -73.5113 -49.6933 103.481 -24.1526 26.8569 -10.3479 -20.5532 -7.22011 -63.6574 18.3345 -3.40449 -22.3656 2.03271 0.835029 -1.22841 -19.3447 0.997775 0.181757 
172.065 97.8336 167.776 -104.217 29.8077 -86.815 177.505 -8.14864 81.1016 -10.0668 21.8234 4.82853 54.0519 2.25807 10.3815 41.7474 -1.10958 2.2309 169.537 -0.579483 80.8529 -25.5002 0.868909 1.13697 63.4277 1.89902 14.2303 33.3551 -0.591689 -2.13075 -1.36432 7.70938 -89.3996 11.4713 -2.43394 1.44354 -0.198302 -2.36803 1.54928 -22.75 -2.75517 0.644903 -2.73733 -2.75517 0.644892 110.396 -51.5914 -69.602 32.2922 -23.7245 4.76924 5.78419 5.14305 -81.7951 -7.32414 -0.24478 -1.37776 -73.5013 -49.7489 103.492 -24.4558 26.3504 -9.81182 -20.2696 -6.5407 -63.4983 16.5444 -2.99297 -21.6616 3.9651 0.584507 -0.800304 -22.1543 0.731036 -0.0731193 
